Coordinates
version=1
nRows=43
nColumns=12
inDegrees=yes

Units are S.I. units (second, meters, Newtons, ...)
Angles are in degrees

endheader
time	SC_y	SC_z	SC_x	AC_y	AC_z	AC_x	GH_y	GH_z	GH_yy	EL_x	PS_y
       0.0              -59.28         -4.069          37.02          58.06         -13.61         -9.281          114.5          39.42          116.5          69.98          77.56
   0.02968              -59.28         -4.064          37.02          58.06          -13.6         -9.278          114.4          39.43          116.5          69.98          77.55
   0.05937              -59.27         -4.058          37.01          58.07          -13.6         -9.275          114.4          39.43          116.4          69.98          77.54
   0.08905              -59.27         -4.052          37.01          58.07          -13.6         -9.271          114.3          39.43          116.4          69.98          77.53
    0.1187              -59.27         -4.045           37.0          58.07         -13.59         -9.267          114.3          39.43          116.4          69.99          77.52
    0.1484              -59.27         -4.039           37.0          58.07         -13.59         -9.263          114.2          39.43          116.4          69.99          77.51
    0.1781              -59.26         -4.031          36.99          58.07         -13.59         -9.259          114.2          39.43          116.3          69.99          77.49
    0.2078              -59.26         -4.023          36.98          58.07         -13.58         -9.254          114.1          39.43          116.3          69.99          77.48
    0.2375              -59.26         -4.015          36.98          58.07         -13.58         -9.249          114.1          39.43          116.3           70.0          77.46
    0.2672              -59.25         -4.006          36.97          58.07         -13.57         -9.243          114.0          39.44          116.2           70.0          77.44
    0.2968              -59.25         -3.996          36.96          58.07         -13.57         -9.238          113.9          39.44          116.2           70.0          77.42
    0.3265              -59.24         -3.986          36.95          58.07         -13.56         -9.231          113.8          39.44          116.2          70.01           77.4
    0.3562              -59.24         -3.974          36.94          58.07         -13.56         -9.225          113.8          39.44          116.1          70.01          77.38
    0.3859              -59.23         -3.962          36.93          58.07         -13.55         -9.217          113.7          39.44          116.1          70.02          77.36
    0.4156              -59.23         -3.949          36.92          58.07         -13.55         -9.209          113.6          39.44          116.0          70.02          77.33
    0.4453              -59.22         -3.935          36.91          58.07         -13.54         -9.201          113.5          39.45          116.0          70.03           77.3
    0.4749              -59.21         -3.919          36.89          58.07         -13.53         -9.191          113.3          39.45          115.9          70.03          77.27
    0.5046               -59.2         -3.902          36.88          58.07         -13.52         -9.181          113.2          39.45          115.9          70.04          77.24
    0.5343               -59.2         -3.884          36.86          58.07         -13.51          -9.17          113.1          39.46          115.8          70.05          77.21
     0.564              -59.19         -3.863          36.85          58.07          -13.5         -9.158          112.9          39.46          115.7          70.06          77.17
    0.5937              -59.18         -3.841          36.83          58.08         -13.49         -9.145          112.8          39.46          115.6          70.06          77.12
    0.6234              -59.17         -3.817          36.81          58.08         -13.48          -9.13          112.6          39.47          115.5          70.07          77.08
     0.653              -59.15          -3.79          36.78          58.08         -13.47         -9.114          112.4          39.47          115.4          70.08          77.03
    0.6827              -59.14          -3.76          36.76          58.08         -13.45         -9.096          112.2          39.48          115.3           70.1          76.97
    0.7124              -59.12         -3.726          36.73          58.08         -13.43         -9.076          111.9          39.48          115.2          70.11           76.9
    0.7421              -59.11         -3.689           36.7          58.08         -13.41         -9.054          111.6          39.49          115.0          70.12          76.83
    0.7718              -59.09         -3.648          36.66          58.08         -13.39         -9.029          111.3           39.5          114.9          70.14          76.75
    0.8015              -59.07         -3.601          36.62          58.09         -13.37         -9.001          111.0           39.5          114.7          70.16          76.66
    0.8312              -59.04         -3.548          36.57          58.09         -13.34          -8.97          110.6          39.51          114.5          70.18          76.56
    0.8608              -59.02         -3.488          36.52          58.09         -13.31         -8.934          110.1          39.52          114.3           70.2          76.44
    0.8905              -58.98         -3.419          36.46           58.1         -13.28         -8.893          109.6          39.53          114.0          70.23          76.31
    0.9202              -58.95          -3.34           36.4           58.1         -13.24         -8.846          109.0          39.55          113.7          70.26          76.16
    0.9499              -58.91          -3.25          36.32           58.1         -13.19         -8.791          108.3          39.56          113.4          70.29          75.98
    0.9796              -58.86         -3.144          36.23          58.11         -13.14         -8.728          107.6          39.58          113.0          70.33          75.78
     1.009               -58.8          -3.02          36.12          58.11         -13.08         -8.654          106.6           39.6          112.5          70.38          75.54
     1.039              -58.74         -2.875           36.0          58.12          -13.0         -8.567          105.5          39.63          112.0          70.44          75.26
     1.069              -58.66         -2.702          35.85          58.13         -12.92         -8.464          104.2          39.66          111.3           70.5          74.93
     1.098              -58.57         -2.494          35.67          58.14         -12.81          -8.34          102.7          39.69          110.5          70.58          74.53
     1.128              -58.45         -2.243          35.45          58.15         -12.68          -8.19          100.8          39.73          109.6          70.68          74.04
     1.158              -58.31         -1.937          35.19          58.17         -12.53         -8.006          98.53          39.79          108.4           70.8          73.45
     1.187              -58.14         -1.558          34.86          58.18         -12.34          -7.78          95.71          39.85          107.0          70.94          72.72
     1.217              -57.93         -1.087          34.46          58.21          -12.1         -7.498          92.18          39.93          105.2          71.12          71.81
     1.247              -57.66        -0.4922          33.95          58.23          -11.8         -7.143          87.74          40.03          103.0          71.35          70.67
